<svg width="33" height="33" viewBox="0 0 33 33" fill="none" xmlns="http://www.w3.org/2000/svg">
  <path d="M32.5 16.634C32.5 12.8535 31.1812 9.37578 28.9806 6.63472L20.9363 20.5679H32.0101C32.3296 19.3088 32.5 17.991 32.5 16.634Z" fill="black"/>
  <path d="M22.125 14.759L27.6568 5.1776C24.7724 2.36791 20.8352 0.634033 16.5 0.634033C15.6761 0.634033 14.8666 0.696721 14.0758 0.817471L22.125 14.759Z" fill="black"/>
  <path d="M10.875 18.509L5.3432 28.0904C8.22758 30.9002 12.1648 32.634 16.5 32.634C17.324 32.634 18.1334 32.5713 18.9242 32.4507L10.875 18.509Z" fill="black"/>
  <path d="M15.3113 22.4429L20.8483 32.0333C25.6842 30.6659 29.5965 27.0765 31.4082 22.4428L15.3113 22.4429Z" fill="black"/>
  <path d="M17.6887 10.8252L12.1517 1.23472C7.3158 2.60216 3.40349 6.19147 1.59174 10.8252H17.6887Z" fill="black"/>
  <path d="M10.0631 16.1653L12.0638 12.7002H0.989938C0.670438 13.9592 0.5 15.277 0.5 16.634C0.5 20.4145 1.81881 23.8923 4.01938 26.6334L10.0631 16.1653Z" fill="black"/>
</svg>