<svg width="126" height="126" viewBox="0 0 126 126" fill="none" xmlns="http://www.w3.org/2000/svg">
  <g clip-path="url(#clip0_1_14)">
    <path d="M124.971 114.563L115.542 66.0801C115.265 64.5887 113.954 63.5017 112.441 63.5017H107.323L106.869 60.7211C106.642 59.3561 105.584 58.2944 104.222 58.0922C103.97 58.0417 103.743 58.0164 103.491 57.9911C103.34 57.9658 103.163 57.9406 103.012 57.9406L101.802 57.7636L102.054 56.5755C102.709 53.5422 102.18 50.433 100.566 47.7788L100.264 47.2985L100.466 46.7677C101.272 44.6696 101.121 42.3187 100.062 40.347C99.0033 38.3753 97.1124 36.9598 94.919 36.4795L94.1878 36.3278L94.0618 35.5695C92.5491 27.4805 85.4898 21.5654 77.2959 21.5149C77.2203 21.5149 77.1194 21.5149 77.0438 21.5402C76.943 21.5402 76.8421 21.5654 76.7413 21.5654L76.0858 21.5907L75.7328 21.0346C74.4974 19.1135 72.5057 17.8496 70.2366 17.5462C67.9676 17.2682 65.7237 18.0012 64.0597 19.5685L63.4042 20.1751L62.6479 19.6949C60.4292 18.254 57.8576 17.4957 55.2356 17.4957C50.9748 17.5209 47.0166 19.4674 44.3946 22.8546L43.9155 23.4613L43.1844 23.2338C40.3607 22.4249 37.3857 22.9052 34.9906 24.5988C32.5954 26.2924 31.1079 28.9466 30.9315 31.8789L30.881 32.5867L30.2255 32.8647C27.3514 34.0781 25.5109 36.8839 25.4857 39.9931C25.4857 40.524 25.5614 41.0548 25.6622 41.5857L25.7631 42.0659L25.4857 42.4704C22.7628 46.5907 22.0569 51.6716 23.5444 56.3733L23.9478 57.6625L22.6116 57.8394C22.3847 57.8647 22.1326 57.89 21.9056 57.9406C21.5779 57.9911 21.2249 58.0417 20.8972 58.067C19.5357 58.2692 18.4516 59.3309 18.2247 60.6959L17.7709 63.4765H12.7033C11.1906 63.4765 9.87963 64.5634 9.6023 66.0548L0.17309 114.563C-0.129451 116.131 0.273937 117.748 1.28241 118.987C2.29088 120.226 3.80359 120.933 5.39193 120.933H50.8992L51.2269 121.49C52.5884 123.739 57.1517 125.256 62.547 125.256C67.9171 125.256 72.4301 123.739 73.8167 121.49L74.1445 120.959H119.702C121.29 120.959 122.778 120.251 123.812 119.012C124.871 117.748 125.274 116.131 124.971 114.563ZM26.0152 45.8576L26.6707 44.2904L27.8556 45.5038C28.259 45.9335 28.738 46.2874 29.2423 46.616C29.7213 46.894 30.3264 46.7424 30.6289 46.2621C30.9063 45.8071 30.7802 45.251 30.3768 44.9224L30.3012 44.8718C28.133 43.5573 27.0741 40.9284 27.7548 38.4765C28.4355 36.0245 30.6793 34.3056 33.2005 34.3056H33.2257C34.9906 34.3056 36.6797 35.165 37.7386 36.6059C37.9403 36.8839 38.3185 37.0356 38.6715 37.0103C39.0244 36.9598 39.3522 36.7323 39.4783 36.4037C39.6295 36.075 39.5791 35.6959 39.3522 35.3925C38.0916 33.6989 36.1503 32.6119 34.0577 32.3844L32.7971 32.2581L33.0493 31.0194C33.8056 27.5058 36.9571 24.9274 40.5372 24.9274H40.5624H40.5876C40.8901 24.9527 41.1927 24.978 41.4952 25.0285L42.8818 25.256L42.3776 26.5705C42.2263 26.9749 42.0751 27.3794 41.9742 27.7838C41.8482 28.3147 42.1759 28.8455 42.7054 28.9972C43.2348 29.1236 43.7895 28.8202 43.9407 28.2894C44.2181 27.253 44.6215 26.2672 45.1761 25.3066C47.2687 21.7677 51.1261 19.5685 55.2104 19.5432C57.4795 19.5432 59.6477 20.2257 61.5386 21.4643L62.2949 21.9446L61.9924 22.7788C61.715 23.5624 61.5638 24.3966 61.5638 25.2308C61.5638 25.7869 62.0176 26.2419 62.5722 26.2419C63.1269 26.2419 63.5807 25.7869 63.5807 25.2308C63.5807 22.0963 66.1271 19.5432 69.2282 19.5432C72.3544 19.5432 74.9008 22.0963 74.9008 25.2308C74.9008 25.7869 75.3546 26.2419 75.9093 26.2419C76.4639 26.2419 76.9177 25.7869 76.9177 25.2308C76.9177 25.2055 76.9178 25.1549 76.8925 25.1296C76.8673 25.0285 76.8673 24.9274 76.8673 24.801L76.7917 23.5371L78.0523 23.613C84.6578 24.0174 90.3304 28.8202 91.8179 35.2914L92.07 36.3531L91.0363 36.6564C90.1539 36.9092 89.3472 37.3137 88.616 37.8698C88.3387 38.0973 88.1622 38.4512 88.2126 38.8051C88.2631 39.159 88.49 39.4876 88.8177 39.614C89.1455 39.7656 89.5489 39.7151 89.8262 39.4876C91.9692 37.8951 94.9694 38.0215 96.9611 39.7909C98.9529 41.5604 99.4571 44.5179 98.1461 46.8435C97.5662 47.8799 96.6838 48.6888 95.5997 49.1944C95.1963 49.3966 94.9694 49.8769 95.0702 50.3319C95.1711 50.7869 95.5745 51.1155 96.0535 51.1408C96.1796 51.1408 96.3308 51.1155 96.4821 51.0396C96.9611 50.8121 97.4401 50.5088 97.8687 50.1549L99.1041 49.1691L99.6336 50.6605C100.894 54.2247 100.113 58.1933 97.5914 60.9992L97.5158 61.075C94.4147 64.4623 89.3472 65.3723 85.2124 63.3248L85.1872 63.2995C84.7838 63.072 84.3804 62.8445 84.0023 62.5664L83.0946 61.9092L83.7501 60.9992C85.0864 59.1033 85.2881 56.6514 84.2292 54.5786C84.0779 54.25 83.7501 54.0477 83.372 54.0225C83.019 53.9972 82.666 54.1741 82.4643 54.4775C82.2626 54.7808 82.2374 55.1853 82.4139 55.4886C83.372 57.4097 82.7669 59.7859 81.0021 60.9992C79.9432 61.707 78.6826 61.9092 77.4724 61.6059C76.2622 61.3025 75.2538 60.4936 74.6739 59.3814C74.4974 59.0275 74.1697 58.8253 73.8167 58.8C73.4637 58.7747 73.1108 58.9517 72.9091 59.255C72.7074 59.5584 72.6822 59.9375 72.8587 60.2661C73.9428 62.4401 76.111 63.8051 78.5313 63.8051H78.5565C79.3381 63.8051 80.0944 63.6534 80.8256 63.3501L81.4811 63.0973L82.0105 63.5523C82.7165 64.159 83.4728 64.6898 84.3048 65.1195C87.1285 66.5857 90.3556 66.889 93.3811 65.9537L96.6334 64.9679L94.6164 67.7232C92.2969 70.8829 88.8933 72.981 85.0359 73.613C84.5317 73.6888 84.1535 74.1691 84.1787 74.6999C84.2292 75.2308 84.6578 75.6352 85.1872 75.6352C85.2376 75.6352 85.2881 75.6352 85.3637 75.6352C86.5739 75.433 87.7588 75.0791 88.9186 74.5988L89.8514 74.1944L90.3556 75.0791C91.0616 76.3177 91.6162 77.6322 92.0448 78.9972C92.1457 79.3258 92.1961 79.6797 92.2213 80.0336C92.2213 81.4239 91.3893 82.6878 90.1287 83.2186L90.1035 83.2439C89.6749 83.3956 89.2463 83.4967 88.8177 83.4967C87.7588 83.4967 86.7504 83.0164 86.0444 82.1822C84.5065 80.3875 82.5148 79.0477 80.2709 78.34C75.758 76.8233 73.4133 75.3066 72.4048 73.2843L71.6737 71.8435L73.262 71.6413C74.3209 71.5149 75.3546 71.2874 76.3883 70.984C76.7161 70.8829 76.9934 70.6049 77.069 70.251C77.1447 69.8971 77.0438 69.5179 76.7665 69.2651C76.4892 69.0124 76.111 68.9365 75.7832 69.0376C74.4974 69.4421 73.1612 69.6696 71.7998 69.7707C69.2282 69.9729 66.5809 69.5685 64.1858 68.6079C63.7824 68.4562 63.3286 68.5573 63.0513 68.886C59.4964 72.981 53.5464 73.6635 49.1596 70.4785C44.7979 67.2934 43.5878 61.4037 46.3611 56.7525C46.5628 56.4492 46.5628 56.0447 46.3863 55.7161C46.2098 55.3875 45.882 55.1852 45.5039 55.1852C45.1509 55.1852 44.7979 55.3622 44.6215 55.6908C44.1676 56.4744 43.7895 57.3339 43.4869 58.2186L43.2348 59.0528L42.3524 59.0022C40.0833 58.8758 38.2681 57.0053 38.2177 54.705V54.6291C38.2177 54.3764 38.1168 54.0983 37.9151 53.9213C37.7386 53.7444 37.4613 53.6433 37.2092 53.6433C36.6293 53.6433 36.1755 54.1236 36.1755 54.6797C36.1755 57.9406 38.6211 60.6453 41.8482 60.9992L42.8566 61.1003V62.1114C42.8566 62.7687 42.9323 63.4259 43.0331 64.0831L43.2096 65.1448L42.1507 65.3723C36.9067 66.5098 31.5365 64.6392 28.1077 60.4936C24.7042 56.4492 23.8974 50.7869 26.0152 45.8576ZM50.874 118.861H5.39193C4.40867 118.861 3.47583 118.431 2.84554 117.647C2.21524 116.889 1.96313 115.903 2.16482 114.943L11.7705 65.524H17.4684L10.5099 107.536C10.3334 108.623 10.7368 109.71 11.5688 110.443C12.4008 111.176 13.5353 111.404 14.5942 111.075C26.1916 107.309 38.6715 106.525 50.6723 108.775L51.6808 108.977L50.874 118.861ZM72.1275 120.428C71.2703 121.768 67.4633 123.183 62.5722 123.183C57.6812 123.183 53.8742 121.793 53.017 120.428L52.8153 120.099L53.6977 109.432L54.9835 109.761C57.4038 110.367 59.7737 111.176 62.068 112.137L62.1184 112.162C62.2445 112.238 62.421 112.263 62.5722 112.263C62.7235 112.263 62.8748 112.238 63.0009 112.162L63.0513 112.137C65.3455 111.151 67.7407 110.342 70.1358 109.735L71.4216 109.407L72.304 120.099L72.1275 120.428ZM65.0682 109.129L63.5807 109.634V81.1205C63.5807 80.5897 63.2025 80.1094 62.6731 80.0589C62.068 80.0083 61.5386 80.4633 61.5386 81.07V109.659L60.0511 109.154C45.2013 104.174 28.8389 104.174 13.9891 109.129C13.8631 109.179 13.737 109.179 13.6362 109.179C12.9555 109.179 12.4008 108.573 12.5269 107.865L20.4181 60.1903L21.2249 60.0639C22.0317 59.9375 22.8889 59.8364 23.6957 59.7353L25.0067 59.5584L25.3849 60.1903C29.1162 66.1559 36.2007 69.0376 43.0079 67.3693L43.8651 67.167L44.2685 67.9507C46.0585 71.3379 49.3613 73.7393 53.1178 74.3966C56.8744 75.0285 60.8074 73.8657 63.6059 71.2368L64.085 70.7818L64.7152 70.9588C66.1019 71.3632 67.5138 71.616 68.9508 71.7171L69.7576 71.7677L69.9593 72.5513C70.8921 76.0649 73.5646 78.2136 79.565 80.2358C81.4559 80.8172 83.1451 81.9547 84.4309 83.4714C85.515 84.7606 87.1033 85.5189 88.7673 85.5189C89.4984 85.5189 90.2044 85.3673 90.8599 85.0892C92.8768 84.2297 94.1878 82.2328 94.1878 80.0336C94.1878 79.4522 94.087 78.8961 93.9105 78.34C93.4567 76.8738 92.8264 75.4835 92.0952 74.1438L91.591 73.2591L92.423 72.6524C95.8518 70.1751 98.2469 66.5351 99.1293 62.3895L99.1798 62.1114L99.3562 61.8839C99.7848 61.3784 100.163 60.8475 100.491 60.2914L100.869 59.6595L102.079 59.8111C102.634 59.887 103.239 59.9628 103.819 60.0639L104.626 60.1903L112.517 107.839C112.643 108.674 111.836 109.381 111.029 109.103C103.592 106.626 95.8014 105.362 88.0109 105.362C80.2961 105.413 72.5057 106.651 65.0682 109.129ZM122.274 117.673C121.643 118.431 120.711 118.886 119.727 118.886H74.2705L73.4637 108.977L74.4722 108.775C86.473 106.5 98.9781 107.309 110.575 111.1C111.609 111.429 112.744 111.176 113.601 110.443C114.433 109.71 114.836 108.623 114.66 107.536L107.701 65.5493H113.424L123.03 114.968C123.156 115.928 122.904 116.914 122.274 117.673Z" fill="black"/>
    <path d="M72.3292 120.099L72.1275 120.428C71.2703 121.768 67.4633 123.183 62.5723 123.183C57.6812 123.183 53.8742 121.793 53.017 120.428L52.8153 120.099L53.6977 109.432L54.9835 109.761C57.4038 110.367 59.7738 111.176 62.068 112.137L62.1184 112.162C62.2445 112.238 62.421 112.263 62.5723 112.263C62.7235 112.263 62.8748 112.238 63.0009 112.162L63.0513 112.137C65.3456 111.151 67.7407 110.342 70.1358 109.735L71.4216 109.407L72.3292 120.099Z" fill="black"/>
    <path d="M76.4639 44.5937C75.5311 49.4471 71.6233 53.2388 66.7826 54.0477L66.1271 54.1488L65.9002 54.7555C64.5135 58.4714 60.9335 60.9486 56.9752 60.9486H56.95C56.3954 60.9486 55.9415 60.4936 55.9415 59.9375C55.9415 59.3814 56.3954 58.9264 56.95 58.9264C59.3956 58.9264 61.6898 57.7383 63.1017 55.7413L64.1102 54.3258L62.421 53.9719C59.9754 53.441 57.8072 52.2024 56.118 50.3318C55.9415 50.1296 55.8659 49.9021 55.8659 49.6493C55.8659 49.3713 55.992 49.0932 56.1937 48.891C56.6223 48.5118 57.2526 48.5371 57.6307 48.9668C60.9839 52.5563 66.354 53.163 70.4383 50.4329C72.5561 48.9668 73.9932 46.7676 74.4722 44.2145C74.5226 43.8606 74.7747 43.5573 75.1277 43.4309C75.4807 43.3045 75.8589 43.3804 76.1362 43.6331C76.4387 43.8354 76.5648 44.2145 76.4639 44.5937Z" fill="black"/>
    <path d="M56.698 35.7717C56.698 36.3278 56.2442 36.7828 55.6895 36.7828C53.8995 36.7828 52.2103 37.4906 50.9245 38.7545C49.6387 40.0184 48.958 41.7373 48.958 43.532C48.958 44.0881 48.5042 44.5431 47.9495 44.5431C47.6722 44.5431 47.4201 44.442 47.2436 44.2398C47.0419 44.0376 46.941 43.7848 46.941 43.532C46.941 38.6786 50.8741 34.7605 55.7147 34.7353C56.2442 34.7353 56.698 35.1903 56.698 35.7717Z" fill="black"/>
    <path d="M63.5808 1.24184V3.39047C63.5808 3.94659 63.127 4.40159 62.5723 4.40159C62.0177 4.40159 61.5638 3.94659 61.5638 3.39047V1.24184C61.5638 0.685718 62.0177 0.230713 62.5723 0.230713C63.127 0.230713 63.5808 0.685718 63.5808 1.24184Z" fill="black"/>
    <path d="M100.113 16.8131L97.9445 18.987C97.6923 19.2398 97.3142 19.3662 96.9612 19.2651C96.6082 19.164 96.3309 18.8859 96.2301 18.532C96.1292 18.1781 96.2301 17.799 96.5074 17.5209L98.6504 15.3723H98.6756C98.8773 15.1701 99.1294 15.0689 99.4067 15.0689C99.4824 15.0689 99.5832 15.0689 99.6589 15.0942C100.012 15.1953 100.289 15.4734 100.39 15.8273C100.491 16.1559 100.39 16.5351 100.113 16.8131Z" fill="black"/>
    <path d="M28.8388 18.6332C28.6875 19.0123 28.3093 19.2651 27.9059 19.2651C27.6286 19.2651 27.3765 19.164 27.2 18.9618L25.0318 16.7879C24.7545 16.5351 24.6536 16.1559 24.7545 15.802C24.8553 15.4481 25.1326 15.1701 25.4856 15.0689C25.5612 15.0437 25.6621 15.0437 25.7377 15.0437C26.0151 15.0437 26.2672 15.1448 26.4941 15.3723L28.6371 17.5209C28.9144 17.8243 28.99 18.254 28.8388 18.6332Z" fill="black"/>
    <path d="M45.4029 9.55828C45.302 9.81106 45.1003 10.0133 44.8482 10.1144C44.7222 10.165 44.5961 10.1902 44.4448 10.1902C44.0414 10.1902 43.6633 9.93746 43.512 9.55828L41.0412 3.54211C40.89 3.21349 40.9404 2.80904 41.1673 2.50571C41.369 2.25293 41.6715 2.10126 41.9741 2.10126C42.0245 2.10126 42.0749 2.10126 42.1254 2.10126C42.4783 2.15181 42.8061 2.40459 42.9321 2.75849L45.4029 8.74939C45.5037 9.02744 45.5037 9.3055 45.4029 9.55828Z" fill="black"/>
    <path d="M84.1031 3.59272L81.6323 9.58362C81.5567 9.78584 81.4307 9.93751 81.2542 10.0386C81.1029 10.1397 80.9012 10.2156 80.6995 10.2156C80.5734 10.2156 80.4222 10.1903 80.3213 10.1397C80.0692 10.0386 79.8675 9.8364 79.7667 9.58362C79.6658 9.33084 79.6658 9.05278 79.7667 8.8L82.2374 2.83437C82.3887 2.42993 82.7921 2.20242 83.1703 2.20242C83.2963 2.20242 83.4224 2.2277 83.5484 2.27826C83.8006 2.37937 84.0023 2.58159 84.1031 2.83437C84.2039 3.06188 84.2039 3.33994 84.1031 3.59272Z" fill="black"/>
    <path d="M113.273 32.5108C113.223 32.8647 112.996 33.1933 112.643 33.3197L106.668 35.7969C106.542 35.8475 106.416 35.8728 106.29 35.8728C105.81 35.8728 105.382 35.5189 105.281 35.0639C105.18 34.5836 105.432 34.1033 105.886 33.9263L111.861 31.4491C111.987 31.3985 112.113 31.3733 112.239 31.3733C112.466 31.3733 112.668 31.4491 112.87 31.5755C113.172 31.803 113.324 32.1569 113.273 32.5108Z" fill="black"/>
    <path d="M19.7877 35.2408C19.586 35.7717 18.9809 35.9992 18.4515 35.797L12.4763 33.3197C12.2242 33.2186 12.0225 33.0164 11.9216 32.7636C11.8208 32.5108 11.8208 32.2328 11.9216 31.98C12.0225 31.7272 12.2242 31.525 12.4763 31.4239C12.6024 31.3733 12.7284 31.348 12.8545 31.348C12.9805 31.348 13.1318 31.3733 13.2327 31.4239L19.2079 33.9011C19.46 34.0022 19.6617 34.2044 19.7625 34.4572C19.8886 34.71 19.8886 34.9881 19.7877 35.2408Z" fill="black"/>
  </g>
  <defs>
    <clipPath id="clip0_1_14">
      <rect width="125" height="125" fill="white" transform="translate(0.0722656 0.230713)"/>
    </clipPath>
  </defs>
</svg>