<svg width="17" height="17" viewBox="0 0 17 17" fill="none" xmlns="http://www.w3.org/2000/svg">
  <path d="M8.04395 0.634033C3.63257 0.634033 0.0439453 4.22266 0.0439453 8.63403C0.0439453 13.0454 3.63257 16.634 8.04395 16.634C12.4553 16.634 16.0439 13.0454 16.0439 8.63403C16.0439 4.22266 12.4553 0.634033 8.04395 0.634033ZM11.8486 12.772C11.7186 12.902 11.548 12.9674 11.3773 12.9674C11.2067 12.9674 11.0359 12.902 10.906 12.772L7.57263 9.43872C7.44727 9.31409 7.37732 9.14465 7.37732 8.96741V4.63403C7.37732 4.26538 7.6759 3.96741 8.04395 3.96741C8.41199 3.96741 8.71057 4.26538 8.71057 4.63403V8.69141L11.8486 11.8293C12.1093 12.0901 12.1093 12.5114 11.8486 12.772Z" fill="black"/>
</svg>