<svg width="23" height="33" viewBox="0 0 23 33" fill="none" xmlns="http://www.w3.org/2000/svg">
  <g clip-path="url(#clip0_1_283)">
    <path d="M6.16677 32.634C9.11077 32.634 11.5005 30.2443 11.5005 27.3003V21.9665H6.16677C3.22277 21.9665 0.833008 24.3563 0.833008 27.3003C0.833008 30.2443 3.22277 32.634 6.16677 32.634Z" fill="#0ACF83"/>
    <path d="M0.833008 16.634C0.833008 13.69 3.22277 11.3003 6.16677 11.3003H11.5005V21.9664H6.16677C3.22277 21.9677 0.833008 19.578 0.833008 16.634Z" fill="#A259FF"/>
    <path d="M0.833008 5.96779C0.833008 3.02379 3.22277 0.634033 6.16677 0.634033H11.5005V11.3003H6.16677C3.22277 11.3003 0.833008 8.91179 0.833008 5.96779Z" fill="#F24E1E"/>
    <path d="M11.4992 0.634033H16.833C19.777 0.634033 22.1668 3.02379 22.1668 5.96779C22.1668 8.91179 19.777 11.3003 16.833 11.3003H11.4992V0.634033Z" fill="#FF7262"/>
    <path d="M22.1668 16.634C22.1668 19.578 19.777 21.9678 16.833 21.9678C13.889 21.9678 11.4992 19.578 11.4992 16.634C11.4992 13.69 13.889 11.3003 16.833 11.3003C19.777 11.3003 22.1668 13.69 22.1668 16.634Z" fill="#1ABCFE"/>
  </g>
  <defs>
    <clipPath id="clip0_1_283">
      <rect width="21.3338" height="32" fill="white" transform="translate(0.833008 0.634033)"/>
    </clipPath>
  </defs>
</svg>