<svg width="16" height="17" viewBox="0 0 16 17" fill="none" xmlns="http://www.w3.org/2000/svg">
  <g clip-path="url(#clip0_1_276)">
    <path d="M12.3211 8.42653C12.2493 9.46863 11.6551 10.2002 10.969 10.5103C10.2416 10.8389 9.50627 10.6577 9.13916 10.059C8.5381 9.07885 8.95111 8.39666 9.3505 7.73691C9.80335 6.98881 10.3167 6.14088 9.82434 4.49194C9.43567 3.19016 8.67449 2.09725 7.56189 1.24356C7.21505 0.977471 6.88611 0.777346 6.61916 0.634033C6.99201 1.5416 7.47686 3.23044 6.9704 5.09631C6.64918 6.27985 5.80023 7.17672 4.97922 8.04406C3.89789 9.1865 2.77968 10.3678 2.77968 12.2553C2.77968 13.7195 3.28983 14.886 4.29591 15.7222C5.05778 16.3555 5.8352 16.6021 5.84295 16.604H7.69803L7.6592 16.6033C7.65205 16.5977 6.94531 16.0398 6.93314 15.4001C6.92747 15.101 7.08439 14.8142 7.39956 14.5475C7.87295 14.1469 8.13314 13.7156 8.19503 13.2289C8.23289 12.9313 8.19462 12.6167 8.0783 12.277C8.86348 12.6063 9.67567 13.3253 9.9509 14.2178C10.1981 15.0194 9.96943 15.8437 9.2903 16.604H11.3205C12.6504 15.5622 13.399 14.3136 13.5458 12.8931C13.7329 11.0819 12.9048 9.37603 12.3211 8.42653Z" fill="black"/>
    <path d="M7.69805 16.604L9.26357 16.634C9.27265 16.6241 9.28135 16.614 9.29029 16.604H7.69805Z" fill="black"/>
  </g>
  <defs>
    <clipPath id="clip0_1_276">
      <rect width="15.2" height="16" fill="white" transform="translate(0.576172 0.634033)"/>
    </clipPath>
  </defs>
</svg>