<svg width="25" height="27" viewBox="0 0 25 27" fill="none" xmlns="http://www.w3.org/2000/svg">
  <path d="M23.21 11.8968C22.7615 11.8968 22.3975 11.5328 22.3975 11.0843C22.3975 7.97293 21.1864 5.04904 18.9872 2.84879C18.6698 2.5314 18.6698 2.01685 18.9872 1.69946C19.3046 1.38208 19.8191 1.38208 20.1367 1.69946C22.6424 4.20619 24.0225 7.5397 24.0225 11.0843C24.0225 11.5328 23.6585 11.8968 23.21 11.8968Z" fill="black"/>
  <path d="M1.00171 11.8968C0.553207 11.8968 0.189209 11.5328 0.189209 11.0843C0.189209 7.53969 1.56943 4.20618 4.07616 1.70044C4.39354 1.38306 4.90829 1.38306 5.22568 1.70044C5.54306 2.01782 5.54306 2.53258 5.22568 2.84996C3.02542 5.04903 1.81421 7.97292 1.81421 11.0843C1.81421 11.5328 1.45021 11.8968 1.00171 11.8968Z" fill="black"/>
  <path d="M12.1058 26.251C9.86551 26.251 8.04333 24.4288 8.04333 22.1885C8.04333 21.74 8.40733 21.376 8.85583 21.376C9.30434 21.376 9.66833 21.74 9.66833 22.1885C9.66833 23.533 10.7613 24.626 12.1058 24.626C13.4501 24.626 14.5433 23.533 14.5433 22.1885C14.5433 21.74 14.9073 21.376 15.3558 21.376C15.8043 21.376 16.1683 21.74 16.1683 22.1885C16.1683 24.4288 14.3462 26.251 12.1058 26.251Z" fill="black"/>
  <path d="M21.0434 23.001H3.16837C2.12279 23.001 1.2724 22.1506 1.2724 21.1052C1.2724 20.5504 1.51401 20.0251 1.93553 19.6643C3.58315 18.2722 4.5224 16.2487 4.5224 14.1048V11.0843C4.5224 6.90276 7.92415 3.50101 12.1059 3.50101C16.2874 3.50101 19.6891 6.90276 19.6891 11.0843V14.1048C19.6891 16.2487 20.6284 18.2722 22.2653 19.6568C22.6975 20.0251 22.9391 20.5504 22.9391 21.1052C22.9391 22.1506 22.0887 23.001 21.0434 23.001ZM12.1059 5.12601C8.81996 5.12601 6.1474 7.79857 6.1474 11.0843V14.1048C6.1474 16.7273 4.99808 19.2039 2.995 20.8972C2.95711 20.9297 2.8974 20.9969 2.8974 21.1052C2.8974 21.2524 3.02098 21.376 3.16837 21.376H21.0434C21.1906 21.376 21.3141 21.2524 21.3141 21.1052C21.3141 20.9969 21.2546 20.9297 21.2187 20.8993C19.2135 19.2039 18.0641 16.7273 18.0641 14.1048V11.0843C18.0641 7.79857 15.3916 5.12601 12.1059 5.12601Z" fill="black"/>
  <path d="M12.1058 5.12601C11.6573 5.12601 11.2933 4.76201 11.2933 4.31351V1.06351C11.2933 0.615005 11.6573 0.251007 12.1058 0.251007C12.5543 0.251007 12.9183 0.615005 12.9183 1.06351V4.31351C12.9183 4.76201 12.5543 5.12601 12.1058 5.12601Z" fill="black"/>
</svg>