<svg width="33" height="33" viewBox="0 0 33 33" fill="none" xmlns="http://www.w3.org/2000/svg">
  <path d="M27.0984 32.634H5.90181C2.68813 32.634 0.0898438 30.0357 0.0898438 26.8221V6.446C0.0898438 3.23232 2.68813 0.634033 5.90181 0.634033H27.0984C30.3121 0.634033 32.9104 3.23232 32.9104 6.446V26.8221C32.9104 30.0357 30.3121 32.634 27.0984 32.634Z" fill="#26C9FF"/>
  <path d="M26.5787 31.2665H6.42147C3.68643 31.2665 1.45737 29.0375 1.45737 26.2887V6.97933C1.45737 4.23062 3.68643 2.00156 6.42147 2.00156H26.5651C29.3138 2.00156 31.5292 4.23062 31.5292 6.96566V26.2887C31.5428 29.0375 29.3138 31.2665 26.5787 31.2665Z" fill="#062026"/>
  <path d="M8.02145 8.12805C8.02145 8.03232 8.21291 7.96394 8.32231 7.96394C9.19752 7.92292 10.4967 7.89557 11.8505 7.89557C15.6385 7.89557 17.1155 9.9742 17.1155 12.6409C17.1155 16.1144 14.5992 17.605 11.5086 17.605C10.989 17.605 10.8112 17.5776 10.442 17.5776V22.8289C10.442 22.9383 10.4009 22.993 10.2779 22.993H8.18556C8.07615 22.993 8.02145 22.952 8.02145 22.8289V8.12805ZM10.4556 15.3896C10.7702 15.4169 11.0163 15.4169 11.5633 15.4169C13.1633 15.4169 14.6676 14.8563 14.6676 12.6819C14.6676 10.9451 13.5873 10.0699 11.7685 10.0699C11.2215 10.0699 10.7018 10.0973 10.4556 10.111V15.3896ZM22.2163 13.7622C21.136 13.7622 20.7668 14.3092 20.7668 14.7605C20.7668 15.2528 21.0129 15.5947 22.4625 16.3469C24.6095 17.3862 25.2796 18.3845 25.2796 19.8477C25.2796 22.0357 23.6112 23.2118 21.3548 23.2118C20.165 23.2118 19.1394 22.9657 18.5514 22.6238C18.4556 22.5827 18.442 22.5144 18.442 22.405V20.3947C18.442 20.258 18.5103 20.2169 18.6061 20.2853C19.4676 20.846 20.4522 21.0922 21.3548 21.0922C22.4351 21.0922 22.8864 20.6409 22.8864 20.0255C22.8864 19.5332 22.5719 19.0956 21.1907 18.3845C19.2488 17.4545 18.442 16.511 18.442 14.9383C18.442 13.1742 19.8232 11.711 22.2163 11.711C23.3924 11.711 24.2129 11.8887 24.6642 12.0939C24.7736 12.1622 24.8009 12.2716 24.8009 12.3674V14.2409C24.8009 14.3503 24.7326 14.4186 24.5958 14.3776C23.9941 13.9947 23.1052 13.7622 22.2163 13.7622Z" fill="#D9F5FF"/>
</svg>