<svg width="15" height="14" viewBox="0 0 15 14" fill="none" xmlns="http://www.w3.org/2000/svg">
  <path d="M5.73 2.25L6.16 1.14C6.23251 0.952064 6.3601 0.790411 6.52605 0.676212C6.69199 0.562014 6.88856 0.500595 7.09 0.5H7.91C8.11144 0.500595 8.308 0.562014 8.47395 0.676212C8.63989 0.790411 8.76748 0.952064 8.84 1.14L9.27 2.25L10.73 3.09L11.91 2.91C12.1065 2.88333 12.3065 2.91567 12.4845 3.00292C12.6626 3.09017 12.8107 3.22838 12.91 3.4L13.31 4.1C13.4125 4.27435 13.4597 4.47568 13.4454 4.67742C13.4312 4.87916 13.356 5.07183 13.23 5.23L12.5 6.16V7.84L13.25 8.77C13.376 8.92817 13.4512 9.12084 13.4654 9.32258C13.4797 9.52432 13.4325 9.72565 13.33 9.9L12.93 10.6C12.8307 10.7716 12.6826 10.9098 12.5045 10.9971C12.3265 11.0843 12.1265 11.1167 11.93 11.09L10.75 10.91L9.29 11.75L8.86 12.86C8.78748 13.0479 8.65989 13.2096 8.49395 13.3238C8.328 13.438 8.13144 13.4994 7.93 13.5H7.09C6.88856 13.4994 6.69199 13.438 6.52605 13.3238C6.3601 13.2096 6.23251 13.0479 6.16 12.86L5.73 11.75L4.27 10.91L3.09 11.09C2.89351 11.1167 2.69354 11.0843 2.51548 10.9971C2.33742 10.9098 2.18932 10.7716 2.09 10.6L1.69 9.9C1.5875 9.72565 1.54027 9.52432 1.55456 9.32258C1.56884 9.12084 1.64396 8.92817 1.77 8.77L2.5 7.84V6.16L1.75 5.23C1.62396 5.07183 1.54884 4.87916 1.53456 4.67742C1.52027 4.47568 1.5675 4.27435 1.67 4.1L2.07 3.4C2.16932 3.22838 2.31742 3.09017 2.49548 3.00292C2.67354 2.91567 2.87351 2.88333 3.07 2.91L4.25 3.09L5.73 2.25ZM5.5 7C5.5 7.39556 5.61729 7.78224 5.83706 8.11114C6.05682 8.44004 6.36918 8.69638 6.73463 8.84776C7.10008 8.99913 7.50221 9.03874 7.89018 8.96157C8.27814 8.8844 8.6345 8.69392 8.91421 8.41421C9.19391 8.13451 9.3844 7.77814 9.46157 7.39018C9.53874 7.00222 9.49913 6.60009 9.34776 6.23463C9.19638 5.86918 8.94003 5.55682 8.61114 5.33706C8.28224 5.1173 7.89556 5 7.5 5C6.96956 5 6.46086 5.21071 6.08578 5.58579C5.71071 5.96086 5.5 6.46957 5.5 7V7Z" stroke="#000001" stroke-linecap="round" stroke-linejoin="round"/>
</svg>