<svg width="33" height="33" viewBox="0 0 33 33" fill="none" xmlns="http://www.w3.org/2000/svg">
  <path d="M16.4999 32.3379C21.6193 32.3379 26.1731 29.9316 29.1016 26.1909H20.6747C19.5868 29.8172 18.9797 32.3379 16.4999 32.3379Z" fill="#C42126"/>
  <path d="M15.551 32.3104C15.548 32.3104 15.5452 32.3099 15.5422 32.3099C15.5452 32.3099 15.5483 32.3104 15.551 32.3104Z" fill="#C42126"/>
  <path d="M20.6747 6.48504H29.1018C26.173 2.74481 21.6192 0.337952 16.4999 0.337952C18.9797 0.337952 19.5868 2.85871 20.6747 6.48504Z" fill="#C42126"/>
  <path d="M15.5422 0.366531C15.5452 0.366531 15.548 0.366059 15.551 0.366059C15.5483 0.365991 15.5452 0.365991 15.5422 0.366531Z" fill="#C42126"/>
  <path d="M29.102 6.48505H20.6747C22.3754 12.1537 22.3754 20.523 20.6747 26.1908H29.1013C31.2284 23.4745 32.4999 20.0561 32.4999 16.3381C32.5002 12.6203 31.2286 9.20165 29.102 6.48505Z" fill="#FFC40C"/>
  <path d="M16.4999 32.3379C16.1816 32.3379 15.8653 32.3286 15.551 32.3104C15.8698 32.3281 16.1867 32.3379 16.4999 32.3379Z" fill="#C42126"/>
  <path d="M15.551 0.365988C15.8652 0.347275 16.1816 0.337952 16.4999 0.337952C16.1867 0.337952 15.8698 0.348288 15.551 0.365988Z" fill="#C42126"/>
  <path d="M21.8515 26.1909H3.89862C6.643 29.6967 10.8155 32.0305 15.542 32.3099C15.5451 32.3099 15.5478 32.3104 15.5509 32.3104C15.8652 32.3286 16.1815 32.3379 16.4998 32.3379C18.9796 32.3379 20.7635 29.8172 21.8515 26.1909Z" fill="#D32030"/>
  <path d="M3.89865 6.48504H21.8516C20.7635 2.85871 18.9796 0.337952 16.4999 0.337952C16.1816 0.337952 15.8653 0.347275 15.551 0.365988C15.5479 0.365988 15.5452 0.366461 15.5421 0.366461C10.8156 0.645674 6.64303 2.97977 3.89865 6.48504Z" fill="#D32030"/>
  <path d="M0.5 16.3381C0.5 20.0561 1.77149 23.4745 3.89867 26.1908H21.8516C23.5524 20.5227 23.5524 12.1534 21.8516 6.48505H3.89867C1.77149 9.20165 0.5 12.6203 0.5 16.3381Z" fill="#FFD034"/>
</svg>